<svg id="Layer_1" data-name="Layer 1" xmlns="http://www.w3.org/2000/svg" viewBox="0 0 812 224"><defs><style>.cls-1{fill:#fff;}.cls-2{fill:#6153ff;}</style></defs><path class="cls-1" d="M320.6,146.64h17l-27-77.5H290.69l-27,77.5h16.35l5.94-17.7h28.67ZM297.3,95c.79-2.13,1.46-4.59,2-6.72.33-1.23.56-2.35.89-3.47h.34c.34,1.12.56,2.24.9,3.47.56,2.13,1.23,4.59,2,6.72l6.72,20.38H290.47Zm61.38,4.48.67-9.3H343.56v78.4h15.79v-29.9h.22c2.69,4.14,7.28,9.29,15.91,9.29,12.09,0,22.06-11.53,22.06-29.56s-10-29.57-22.06-29.57C367,88.85,361.7,94,358.9,99.49Zm.22,18.93c0-10.19,4-16.91,11.31-16.91s11.31,6.72,11.31,16.91-4,16.91-11.31,16.91S358.9,128.61,358.9,118.42Zm62.72-18.93.67-9.3H406.5v78.4h15.79v-29.9h.23c2.69,4.14,7.28,9.29,15.9,9.29,12.1,0,22.06-11.53,22.06-29.56s-10-29.57-22.06-29.57c-8.51,0-13.78,5.15-16.58,10.64Zm.22,18.93c0-10.19,4-16.91,11.32-16.91s11.31,6.72,11.31,16.91-4,16.91-11.31,16.91S421.84,128.61,421.84,118.42ZM494,146.64h16.35V116.4h13.33l15.9,30.24H557l-17.25-32.37c9.41-3.47,15.57-10.86,15.57-21.61,0-15.12-10.87-23.52-28.34-23.52H494Zm44.91-54c0,6.27-4,10.19-11.76,10.19h-16.8V82.91h16.8C534.85,82.91,538.88,86.39,538.88,92.66Zm47.72,8.28c4.59,0,8.06,2.47,8.06,6.16,0,3.92-4.37,4.93-12.1,6.61-9.07,1.8-20.72,5-20.72,17.7,0,10.41,8,16.57,17.81,16.57a18.74,18.74,0,0,0,16-8.39H596a21,21,0,0,0,3.14,7H611c-1.23-4.37-1.34-8.29-1.34-14.22V109.91c0-14.12-10.08-21.06-22.85-21.06-12.54,0-22.29,6.5-26.66,15.9l13.89,7.4C575.73,105.43,580,100.94,586.6,100.94Zm8.51,24.42c0,7.06-4.93,10.75-10.64,10.75-4.93,0-7.39-2.35-7.39-5.82,0-4.48,4.36-5.71,9.18-6.94,4.37-1.24,7.17-2.25,8.85-4.37Zm62.16,12-.9,9.29h15.79V65.55H656.37V97.92H656a18,18,0,0,0-15.8-9.07c-12,0-22,11.54-22,29.57s10,29.56,22,29.56c8.51,0,13.89-5.15,16.58-10.63Zm-11.65-2c-7.28,0-11.31-6.72-11.31-16.91s4-16.91,11.31-16.91,11.2,6.72,11.2,16.91S652.79,135.33,645.62,135.33Zm61.26-34.39c4.59,0,8.07,2.47,8.07,6.16,0,3.92-4.37,4.93-12.1,6.61-9.07,1.8-20.72,5-20.72,17.7,0,10.41,8,16.57,17.81,16.57a18.77,18.77,0,0,0,16-8.39h.33a20.77,20.77,0,0,0,3.14,7H731.3c-1.23-4.37-1.34-8.29-1.34-14.22V109.91c0-14.12-10.09-21.06-22.85-21.06-12.55,0-22.29,6.5-26.66,15.9l13.89,7.4C696,105.43,700.28,100.94,706.88,100.94Zm8.51,24.42c0,7.06-4.92,10.75-10.64,10.75-4.92,0-7.39-2.35-7.39-5.82,0-4.48,4.37-5.71,9.19-6.94,4.36-1.24,7.16-2.25,8.84-4.37Zm26.1,21.28h15.79V114.39c0-7.29,2-12,7-12,3.92,0,5.26,3.47,5.26,7.17a50.75,50.75,0,0,1-.9,9.29l14.23-8.17c.11-.56.11-1.12.22-1.9a46.8,46.8,0,0,0,.34-4.71c0-8.4-4.26-15-12.32-15-7.17,0-11.43,4.93-14.23,10.42h-.33l.78-9.3H741.49Z"/><path class="cls-2" d="M200,112a88.33,88.33,0,0,1-44,76.22l-6.93,4-8-13.85h0l-36-62.37a8,8,0,1,1,13.86-8l17.53,30.36a36,36,0,1,0-31.83,8.88l9.65,16.7q-1.14.06-2.28.06a52.1,52.1,0,1,1,32.6-11.54L154.7,170A72,72,0,1,0,76,174.32l-8,13.87A88,88,0,1,1,200,112Z"/></svg>